<?xml version="1.0" encoding="utf-8"?>
<!-- Generator: Adobe Illustrator 16.0.0, SVG Export Plug-In . SVG Version: 6.00 Build 0)  -->
<!DOCTYPE svg PUBLIC "-//W3C//DTD SVG 1.1//EN" "http://www.w3.org/Graphics/SVG/1.1/DTD/svg11.dtd">
<svg version="1.1" id="Lager_1" xmlns="http://www.w3.org/2000/svg" xmlns:xlink="http://www.w3.org/1999/xlink" x="0px" y="0px"
	 width="283.46px" height="283.46px" viewBox="0 0 283.46 283.46" enable-background="new 0 0 283.46 283.46" xml:space="preserve">
<g>
	<path fill-rule="evenodd" clip-rule="evenodd" fill="#EBBD4A" d="M113.047,60.745c1.491-0.996,2.983-1.992,4.938-3.296
		c-0.79-0.809-1.517-1.76-2.433-2.46c-5.546-4.247-11.188-8.374-16.655-12.717c-0.77-0.613-1.408-2.698-0.993-3.228
		c0.922-1.176,2.801-2.74,3.843-2.465c2.941,0.78,6.502,0.663,6.736,5.862c0.12,2.686,3.444,6.346,6.196,7.534
		c4.19,1.806,9.14,1.845,14.881,2.824c-3.44-3.9-6.184-6.565-8.398-9.615c-5.069-6.979-4.761-7.534,4.645-9.67
		c0.564,2.057,1.52,4.132,1.644,6.256c0.36,6.216,4.77,10.176,11.001,9.4c4.548-0.566,9.194-0.874,13.564-2.117
		c1.788-0.509,4.4-3.416,4.168-4.823c-1.065-6.432,1.762-8.498,8.95-8.209c-2.877,6.293-5.574,12.192-8.334,18.227
		c7.308,1.444,12.861-0.907,17.038-5.953c0.807-0.974-0.737-3.894-1.382-6.738c1.348-0.715,3.302-2.303,5.494-2.758
		c2.078-0.432,4.402,0.323,6.618,0.557c-0.541,2.409-0.282,5.68-1.774,7.07c-4.88,4.545-10.397,8.406-16.193,12.939
		c4.696,3.794,10.418-0.987,16.504,0.815c-0.978,1.199-1.624,2.819-2.686,3.166c-8.31,2.71-16.483,3.897-24.788-0.812
		c-2.485-1.409-6.269-0.907-9.389-0.6c-1.018,0.101-2.599,2.353-2.609,3.63c-0.106,13.864,0.192,27.731,0.079,41.594
		c-0.072,8.742-0.86,17.478-0.946,26.222c-0.09,9.062,0.372,18.129,0.359,27.192c-0.003,1.566-1.172,3.129-1.801,4.694
		c-0.381,0.124-0.762,0.249-1.142,0.373c-0.816-5.467-2.271-10.928-2.329-16.402c-0.183-17.016,0.1-34.037,0.329-51.053
		c0.151-11.242,0.437-22.485,0.835-33.722c0.129-3.662-1.279-4.74-4.649-3.761c-4.894,1.42-9.735,3.108-14.715,4.093
		c-1.966,0.389-4.245-0.801-6.38-1.272C113.191,61.267,113.116,61.006,113.047,60.745z"/>
	<path fill-rule="evenodd" clip-rule="evenodd" fill="#EBBD4A" d="M141.712,201.102c0.393,2.107,0.841,4.203,1.164,6.321
		c1.212,7.93,2.979,15.836,3.406,23.812c0.468,8.746-0.081,17.579-0.739,26.333c-0.145,1.953-2.588,3.733-3.972,5.595
		c-1.663-1.641-4.132-2.986-4.854-4.969c-3.889-10.69-4.072-21.616-1.646-32.759c1.684-7.728,2.582-15.626,3.828-23.445
		C139.837,201.694,140.773,201.398,141.712,201.102z"/>
	<path fill-rule="evenodd" clip-rule="evenodd" fill="#EBBD4A" d="M113.273,61.524c-4.581,0.134-9.455,1.315-13.669,0.136
		c-5.343-1.494-10.412-4.51-15.109-7.611c-4.095-2.703-7.771-6.198-11.085-9.841c-1.116-1.227-0.556-3.978-0.768-6.094
		c7.417-3.354,8.272-3.002,10.753,4.515c3.165,9.587,10.976,14.862,21.251,15.129c2.824,0.074,5.603,1.946,8.401,2.99
		C113.116,61.006,113.191,61.267,113.273,61.524z"/>
	<path fill-rule="evenodd" clip-rule="evenodd" fill="#EBBD4A" d="M200.196,46.141c-0.102-1.035-0.765-2.714-0.277-3.935
		c0.851-2.129,2.154-5.314,3.733-5.613c2.078-0.395,5.197,1.036,6.716,2.721c0.904,1.002,0.358,4.966-0.86,5.939
		c-6.185,4.941-21.975,12.313-29.089,16.093C180.589,54.078,196.854,50.647,200.196,46.141z"/>
	<path fill-rule="evenodd" clip-rule="evenodd" fill="#EBBD4A" d="M141.324,163.269c4.715,2.227,0.487,5.637,0.815,8.417
		c0.558,4.702-0.644,9.612-1.108,14.436c-0.375,0.116,0.668,27.491,0.295,27.606c-0.683-1.873-3.472-31.056-3.336-32.867
		c0.431-5.763,1.423-11.482,2.193-17.22C140.562,163.518,140.943,163.393,141.324,163.269z"/>
</g>
</svg>
