<?xml version="1.0" encoding="utf-8"?>
<!-- Generator: Adobe Illustrator 16.0.0, SVG Export Plug-In . SVG Version: 6.00 Build 0)  -->
<!DOCTYPE svg PUBLIC "-//W3C//DTD SVG 1.1//EN" "http://www.w3.org/Graphics/SVG/1.1/DTD/svg11.dtd">
<svg version="1.1" id="Lager_1" xmlns="http://www.w3.org/2000/svg" xmlns:xlink="http://www.w3.org/1999/xlink" x="0px" y="0px"
	 width="241px" height="165.569px" viewBox="0 0 241 165.569" enable-background="new 0 0 241 165.569" xml:space="preserve">
<g id="zCHOIm.tif">
	<g>
		<path fill-rule="evenodd" clip-rule="evenodd" fill="#FFFFFF" d="M82.138,114.008c15.343,0,29.198,0,43.668,0
			C110.604,122.5,91.528,122.952,82.138,114.008z"/>
		<path fill-rule="evenodd" clip-rule="evenodd" fill="#FFFFFF" d="M172.009,151.936c11.253-8.297,35.553-9.318,43.675,0
			C200.181,151.936,185.65,151.936,172.009,151.936z"/>
		<path fill-rule="evenodd" clip-rule="evenodd" fill="#FFFFFF" d="M188.121,137.595"/>
	</g>
</g>
<text transform="matrix(0.9593 -0.1445 -0.0954 0.9954 76.0391 154.9551)" fill="#FFEAA9" font-family="'Futura-Medium'" font-size="28.6858">KLINIKKEN</text>
<path fill="#FFFFFF" d="M133.324,93.009 M188.167,42.566c1.179-13.101-14.795-7.106-14.67-3.981
	c0.07,1.767,1.105,14.16-1.317,16.523c-2.424,2.363-11.151,6.773-11.321,1.994c-0.168-4.778,0.655-12.611,0.764-14.268
	c0.27-4.124-7.36-0.435-10.457,2.183c-3.097,2.614-3.418,10.442-3.418,10.442s-9.4,2.894-11.159-8.208
	c-1.758-11.102-14.95,2.432-18.477,5.819c-3.524,3.388-11.865,12.367-11.865,12.367l-0.028-13.696c0,0-2.012-10.41-15.302-3.561
	c-6.487,3.343-9.794,5.047-11.494,5.923c0.494-2.06,0.79-3.267,0.79-3.267s2.621-9.663,7.153-23.265s1.282-15.31,1.282-15.31
	C81.827-0.255,73.015,8.26,73.015,8.26S62.541,21.388,55.612,31.657c-6.928,10.269-25.795,43.742-42.615,83.521
	c-16.824,39.782,1.312,37.16,1.312,37.16l24.384-57.888l21.151-13.96c0,0-3.983,22.696-5.652,33.463
	c-1.671,10.767,11.403,13.267,11.403,13.267s0,0,1.933-16.244c1.029-8.653,4.562-25.151,7.638-38.683
	c0.022-0.016,23.475-15.725,20.304-8.781c-3.171,6.946-4.068,33.179,10.28,20.142c14.349-13.038,20.017-20.301,20.017-20.301
	l1.544-1.421c0,0,2.188,16.782,11.6,12.35c9.412-4.434,10.454-7.204,10.454-7.204l0,0c0.431,0.882,0.397,0.73,0.765,1.48
	c1.279,2.611,7.679,5.795,17.789,1.634c1.237-0.51,3.037-1.425,4.08-1.982c-2.333,5.286-6.08,22.721-43.6,24.375
	c-9.793,0.432,16.512,14.791,38.52,0.846C188.562,79.715,186.988,55.667,188.167,42.566z M66.135,58.625l-14.729,8.723L74.89,29.153
	L66.135,58.625z"/>
<path fill="#FFFFFF" d="M216.747,29.96c-1.719,4.688,0.17,13.971-7.82,17.471c-3.535,1.549-2.475,0.183-1.055-11.221
	c1.18-9.456-10.382-5.583-11.625-1.625s-13.959,33.277,6.17,30.155c16.5-2.56,27.491-19.992,27-31.06
	C228.751,18.681,218.122,26.21,216.747,29.96z"/>
</svg>
