<?xml version="1.0" encoding="utf-8"?>
<!-- Generator: Adobe Illustrator 16.0.0, SVG Export Plug-In . SVG Version: 6.00 Build 0)  -->
<!DOCTYPE svg PUBLIC "-//W3C//DTD SVG 1.1//EN" "http://www.w3.org/Graphics/SVG/1.1/DTD/svg11.dtd">
<svg version="1.1" id="Lager_1" xmlns="http://www.w3.org/2000/svg" xmlns:xlink="http://www.w3.org/1999/xlink" x="0px" y="0px"
	 width="381px" height="165.568px" viewBox="0 0 381 165.568" enable-background="new 0 0 381 165.568" xml:space="preserve">
<g id="zCHOIm.tif_4_">
	<g>
		<path fill="#FFFFFF" d="M102.101,123.621c15.342,0,29.197,0,43.668,0C130.567,132.114,111.489,132.567,102.101,123.621z"/>
		<path fill="#FFFFFF" d="M191.971,159.549c11.253-8.297,35.554-9.316,43.675,0C220.144,159.549,205.612,159.549,191.971,159.549z"
			/>
		<path fill="#FFFFFF" d="M208.083,147.209"/>
	</g>
</g>
<text transform="matrix(0.9593 -0.1445 -0.0954 0.9954 96.0015 162.5686)" fill="#EABC49" font-family="'Futura-Medium'" font-size="28.6847">KLINIKKEN</text>
<path fill="#FFFFFF" d="M208.129,52.179c1.179-13.102-14.795-7.105-14.67-3.98c0.069,1.767,1.104,14.16-1.317,16.522
	c-2.424,2.363-11.15,6.772-11.32,1.994c-0.168-4.778,0.654-12.61,0.764-14.269c0.27-4.123-7.359-0.435-10.457,2.184
	c-3.098,2.613-3.418,10.441-3.418,10.441s-9.4,2.895-11.159-8.207c-1.758-11.103-14.95,2.432-18.478,5.818
	c-3.523,3.389-11.864,12.367-11.864,12.367l-0.028-13.695c0,0-2.012-10.41-15.302-3.562c-6.487,3.343-9.794,5.047-11.494,5.923
	c0.494-2.061,0.79-3.268,0.79-3.268s2.621-9.662,7.152-23.265c4.533-13.602,1.283-15.31,1.283-15.31
	c-6.82-12.52-15.633-4.004-15.633-4.004S82.503,30.999,75.575,41.267C68.647,51.537,49.78,85.01,32.96,124.789
	c-16.824,39.781,1.312,37.16,1.312,37.16l24.383-57.889L79.808,90.1c0,0-3.984,22.697-5.652,33.465
	c-1.672,10.766,11.402,13.266,11.402,13.266s0,0,1.934-16.244c1.029-8.652,4.562-25.15,7.638-38.682
	c0.022-0.018,23.476-15.726,20.304-8.782c-3.171,6.945-4.068,33.178,10.28,20.141c14.349-13.038,20.017-20.3,20.017-20.3
	l1.545-1.421c0,0,2.188,16.782,11.6,12.35c9.412-4.434,10.453-7.204,10.453-7.204l0,0c0.432,0.881,0.398,0.729,0.766,1.479
	c1.279,2.61,7.68,5.794,17.789,1.634c1.236-0.51,3.037-1.425,4.08-1.982c-2.333,5.288-6.08,22.721-43.6,24.375
	c-9.793,0.432,16.512,14.791,38.52,0.846C208.524,89.328,206.95,65.281,208.129,52.179z M86.097,68.238l-14.729,8.724l23.484-38.194
	L86.097,68.238z"/>
<path fill="#FFFFFF" d="M235.709,40.574c-1.72,4.688,0.17,13.971-7.82,17.471c-3.534,1.549-2.475,0.183-1.055-11.221
	c1.18-9.457-10.382-5.584-11.625-1.625c-1.243,3.957-13.959,33.276,6.17,30.154c16.5-2.56,27.491-19.992,27-31.06
	C247.713,29.295,237.084,36.824,235.709,40.574z"/>
<path fill-rule="evenodd" clip-rule="evenodd" fill="#EABC49" d="M264.164,38.273c0.46,0.285,0.918,0.572,1.38,0.854
	c0.318,0.195,0.645,0.385,0.983,0.585c0.868-2.157,0.068-5.874-1.474-7.282c-0.421-0.386-0.795-0.514-1.385-0.252
	c-1.835,0.818-3.692,1.59-5.575,2.283c-0.339,0.124-0.846-0.205-1.274-0.325c0.005-0.133,0.01-0.266,0.016-0.397
	c0.512-0.221,1.014-0.479,1.542-0.655c1.53-0.513,3.085-0.96,4.604-1.506c0.429-0.153,0.77-0.558,1.149-0.848
	c-0.05-0.091-0.101-0.181-0.151-0.272c-0.98,0.184-1.961,0.368-2.941,0.552c1.034-0.927,2.206-1.455,3.587-1.462
	c0.289-0.002,0.645,0.065,0.856-0.074c1.474-0.973,2.92-1.988,4.368-3c0.158-0.111,0.275-0.284,0.343-0.645
	c-0.672,0.105-1.354,0.162-2.01,0.328c-0.856,0.217-1.687,0.532-2.534,0.785c-0.854,0.254-1.697,0.445-2.579-0.002
	c-0.234-0.119-0.627,0.067-0.945,0.121c-0.801,0.137-1.596,0.328-2.4,0.382c-0.217,0.015-0.462-0.38-0.692-0.587
	c0.209-0.141,0.406-0.373,0.631-0.402c0.697-0.096,1.406-0.107,2.108-0.17c0.204-0.018,0.409-0.08,0.602-0.152
	c0.556-0.207,1.087-0.378,1.203,0.613c1.923-0.582,3.764-1.139,5.755-1.74c-0.211-0.324-0.371-0.557-0.518-0.797
	c-0.333-0.547-0.645-1.109-0.996-1.646c-0.175-0.266-0.392-0.521-0.637-0.72c-0.521-0.42-1.139-0.739-1.59-1.219
	c-0.327-0.347-0.454-0.884-0.669-1.337c0.137-0.094,0.274-0.186,0.411-0.278c1.483,1.64,2.965,3.28,4.562,5.047
	c0.187-0.45,0.444-0.858,0.523-1.3c0.302-1.705,0.631-3.412,0.779-5.135c0.095-1.092-0.148-2.209-0.162-3.315
	c-0.004-0.285,0.29-0.574,0.446-0.86c0.223,0.309,0.629,0.615,0.632,0.927c0.005,0.719-0.227,1.435-0.287,2.159
	c-0.151,1.82-0.2,3.652-0.414,5.465c-0.097,0.82-0.511,1.605,0.22,2.626c0.34-1.487,0.639-2.809,0.938-4.13
	c0.021,0.018,0.041,0.035,0.062,0.053c0.224-0.461,0.544-0.898,0.655-1.385c0.292-1.262,0.54-2.537,0.712-3.819
	c0.126-0.935,0.311-1.948,0.073-2.817c-0.185-0.68-0.382-1.275-0.202-1.961c0.023-0.088,0.011-0.204,0.065-0.263
	c0.298-0.326,0.598-0.652,0.934-0.938c0.048-0.042,0.413,0.14,0.415,0.22c0.002,0.404,0.053,0.88-0.135,1.203
	c-0.522,0.906-0.222,1.875-0.337,2.807c-0.044,0.35,0.147,0.736,0.074,1.072c-0.342,1.578-0.764,3.139-1.106,4.717
	c-0.216,1-0.394,2.014-0.475,3.031c-0.022,0.285,0.357,0.603,0.681,1.102c0.47-0.822,0.855-1.458,1.202-2.113
	c0.904-1.721,1.84-3.427,2.667-5.185c0.349-0.743,0.457-1.603,0.666-2.41c0.423-1.636,0.841-3.272,1.239-4.821
	c-0.2-0.255-0.592-0.564-0.539-0.723c0.129-0.383,0.468-0.694,0.72-1.034c0.221,0.436,0.688,0.913,0.621,1.298
	c-0.56,3.168-0.651,6.455-2.207,9.382c-0.189,0.356-0.599,0.593-0.894,0.896c-0.163,0.166-0.395,0.337-0.435,0.538
	c-0.487,2.484-1.987,4.466-3.245,6.562c-0.432,0.718-0.314,1.112,0.385,1.548c1.312,0.816,2.548,1.752,3.86,2.565
	c0.273,0.17,0.762,0.106,1.115,0.012c0.668-0.181,1.309-0.46,2.006-0.716c0.151,0.207,0.307,0.42,0.485,0.665
	c1.435-1.141,2.868-2.255,4.269-3.407c0.456-0.374,0.502-0.773-0.196-0.974c-0.255-0.074-0.503-0.173-0.827-0.286
	c0.153-0.301,0.266-0.524,0.367-0.725c-1.464-1.174-2.921-2.343-4.441-3.562c0.589-0.473,1.137-0.436,1.604-0.012
	c0.651,0.59,1.217,1.275,1.866,1.868c0.294,0.268,0.701,0.408,1.06,0.608c0.1-0.393,0.317-0.795,0.28-1.174
	c-0.127-1.327-0.322-2.65-0.542-3.967c-0.046-0.274-0.413-0.503-0.438-0.771c-0.031-0.307,0.156-0.634,0.249-0.952
	c0.23,0.166,0.616,0.296,0.665,0.505c0.347,1.445,0.614,2.91,0.92,4.365c0.127,0.601,0.284,1.194,0.429,1.792
	c0.104,0.005,0.21,0.009,0.315,0.014c0.156-0.304,0.32-0.604,0.468-0.91c0.438-0.906,0.878-1.811,1.298-2.725
	c0.51-1.106,0.767-2.228,0.375-3.456c-0.126-0.398,0.028-0.887,0.055-1.335c0.137-0.019,0.276-0.038,0.413-0.058
	c0.164,0.539,0.435,1.07,0.47,1.619c0.08,1.252-0.032,2.486-0.667,3.636c-0.273,0.493-0.332,1.099-0.548,1.63
	c-0.317,0.785-0.714,1.539-1.021,2.329c-0.151,0.392-0.177,0.835-0.26,1.254c0.143,0.058,0.285,0.115,0.426,0.172
	c0.253-0.37,0.584-0.71,0.743-1.116c0.777-1.986,1.507-3.99,2.257-5.988c0.05-0.136,0.117-0.264,0.178-0.395
	c0.083-0.004,0.163-0.006,0.245-0.01c0.042,0.477,0.138,0.954,0.114,1.426c-0.09,1.762-0.908,3.273-1.734,4.77
	c-1.067,1.929-1.084,1.919,0.776,3.115c1.068,0.686,1.224,0.895,1.254,1.768c-0.648-0.344-1.265-0.67-2.004-1.061
	c-0.151,1.174,0.326,1.966,1.019,2.469c1.675,1.217,3.575,1.908,5.92,1.954c-0.942-1.006-1.747-1.863-2.645-2.821
	c-0.394-0.045-0.916,0.9-1.593,0.025c0.367-0.211,0.683-0.393,1.186-0.68c-0.432-0.312-0.776-0.523-1.068-0.789
	c-0.204-0.186-0.374-0.432-0.479-0.685c-0.036-0.084,0.199-0.402,0.275-0.39c0.283,0.045,0.561,0.163,0.818,0.296
	c0.125,0.063,0.188,0.241,0.304,0.333c0.265,0.205,0.683,0.608,0.794,0.539c0.323-0.203,0.625-0.562,0.759-0.924
	c0.174-0.478,0.137-1.027,0.272-1.522c0.099-0.351,0.336-0.662,0.538-1.04c0.777,0.92,0.066,3.559-1.19,4.215
	c0.658,0.734,1.28,1.428,2.119,2.362c0.276-1.085,0.47-1.892,0.692-2.692c0.364-1.314,0.726-2.633,1.141-3.933
	c0.109-0.335,0.417-0.607,0.632-0.908c0.107,0.038,0.216,0.077,0.322,0.114c-0.121,0.723-0.209,1.453-0.373,2.166
	c-0.346,1.513-0.751,3.012-1.086,4.526c-0.087,0.392-0.006,0.818-0.002,1.206c0.188,0.031,0.283,0.068,0.298,0.046
	c0.769-1.044,1.658-2.026,2.253-3.163c0.558-1.064,0.779-2.302,1.2-3.444c0.085-0.229,0.396-0.376,0.603-0.56
	c0.196,0.861,0.364,1.662-0.189,2.531c-0.66,1.035-1.047,2.244-1.684,3.297c-0.657,1.09-1.501,2.064-2.206,3.129
	c-0.209,0.314-0.419,0.842-0.296,1.127c0.626,1.445,1.415,2.82,2.036,4.269c0.291,0.679,0.404,1.458,0.463,2.204
	c0.063,0.814,0.001,1.643-0.059,2.461c-0.042,0.561,0.112,0.837,0.712,0.911c0.925,0.114,1.055,0.021,1.232-1.077
	c0.648-4.001,1.441-7.969,2.826-11.795c0.317-0.883,0.557-1.795,1.653-1.653c0.193-0.788,0.351-1.456,0.522-2.122
	c0.168-0.654,0.127-1.195-0.618-1.49c-1.471-0.58-2.93-1.189-4.394-1.788c-0.569-0.583-1.138-1.167-1.706-1.753
	c-0.062-0.064-0.1-0.18-0.174-0.205c-1.932-0.695-3.06-2.448-4.674-3.572c-0.901-0.629-1.565-1.58-1.441-2.896
	c1.396,2.332,3.647,3.709,5.596,5.438c2.048,1.82,4.549,2.588,6.751,3.988c0.054-0.052,0.109-0.104,0.165-0.156
	c-0.21-0.252-0.42-0.504-0.63-0.758c-1.41-1.714-2.831-3.422-4.224-5.151c-0.29-0.361-0.701-0.847-0.051-1.23
	c0.597-0.352,0.931,0.155,1.132,0.583c0.305,0.648,0.473,1.357,0.751,2.02c0.148,0.355,0.348,0.729,0.625,0.985
	c0.576,0.536,1.219,1,1.76,1.435c0.464-0.152,0.814-0.267,1.322-0.431c-0.092-0.681-0.194-1.438-0.322-2.384
	c-0.267,0.494-0.441,0.824-0.658,1.227c-0.671-1.098-0.393-2.654,0.563-3.435c1.071,1.329,0.839,3.07,1.46,4.629
	c0.416-1.932,0.809-3.761,1.221-5.673c-0.333-0.052-0.561-0.106-0.79-0.121c-1.426-0.089-2.836-0.266-4.279-0.277
	c-2.393-0.021-4.509-1.188-6.617-2.228c-0.802-0.396-1.59-0.821-2.343-1.323c1.453-0.104,2.598,0.607,3.775,1.286
	c0.604,0.347,1.303,0.558,1.981,0.745c0.848,0.232,1.72,0.397,2.588,0.557c0.746,0.137,1.499,0.264,2.257,0.312
	c0.243,0.015,0.501-0.236,0.755-0.365c-0.159-0.227-0.269-0.559-0.487-0.66c-0.675-0.315-1.394-0.539-2.091-0.805
	c-0.227-0.087-0.455-0.178-0.666-0.298c-1.585-0.903-3.222-1.732-4.733-2.747c-1.427-0.957-2.727-2.107-4.067-3.189
	c-0.182-0.146-0.386-0.385-0.399-0.594c-0.019-0.25,0.099-0.57,0.272-0.745c0.078-0.08,0.571,0.05,0.647,0.199
	c1.491,2.939,4.293,4.097,7.077,5.31c1.166,0.508,2.279,1.139,3.549,1.656c-0.867-1.012-1.736-2.025-2.603-3.036
	c0.069-0.064,0.139-0.128,0.208-0.193c2.088,0.553,2.933,2.651,4.6,3.919c0.374-2.066,0.27-4-0.274-5.987
	c0.988,0.397,0.988,0.397,1.609,4.986c0.975-0.759,1.555-1.735,1.975-2.8c0.392-0.99,0.688-2.019,1.014-3.035
	c0.054-0.164,0.125-0.438,0.046-0.512c-0.985-0.936,0.246-1.261,0.502-1.842c0.469,3.627-1.171,6.569-3.113,9.438
	c3.657-2.355,5.844-5.709,7.066-9.88c0.025,0.294,0.14,0.612,0.064,0.878c-0.32,1.135-0.512,2.362-1.091,3.356
	c-0.991,1.702-2.234,3.258-3.38,4.869c-0.244,0.343-0.524,0.659-0.789,0.987c0.031,0.086,0.062,0.171,0.095,0.256
	c1.081-0.172,2.172-0.299,3.243-0.523c2.552-0.539,4.958-1.458,7.212-2.799c0.883-0.524,1.92-0.789,2.812-1.303
	c0.361-0.207,0.536-0.756,0.768-1.164c0.129-0.229,0.175-0.684,0.304-0.701c0.291-0.039,0.716,0.039,0.888,0.24
	c0.148,0.172,0.146,0.682-0.005,0.867c-1.005,1.223-2.241,2.137-3.792,2.577c-0.347,0.099-0.74,0.157-1.017,0.363
	c-2.963,2.21-6.354,3.153-9.972,3.463c-1.516,0.13-1.521,0.155-1.878,1.597c-0.467,1.885-0.61,3.871-1.785,5.529
	c-0.081,0.114-0.014,0.334-0.018,0.747c0.77-0.508,1.383-0.921,2.005-1.323c1.63-1.057,3.063-2.307,4.05-4.018
	c0.102-0.178,0.359-0.266,0.546-0.396c0.12,0.184,0.291,0.352,0.353,0.552c0.193,0.635,0.349,1.282,0.558,2.073
	c0.228-0.227,0.46-0.369,0.566-0.578c0.293-0.582,0.429-1.264,1.364-1.161c0.155,0.017,0.381-0.604,0.61-0.992
	c1.311,1.333,0.701,3.503,2.043,4.831c0.368-0.234,0.65-0.521,0.98-0.603c1.198-0.297,1.168-1.196,0.837-2.517
	c-0.169-0.67,0.056-1.443,0.146-2.163c0.012-0.093,0.309-0.226,0.445-0.2c0.131,0.025,0.312,0.229,0.322,0.365
	c0.028,0.423,0.008,0.854-0.034,1.276c-0.081,0.781-0.289,1.554,0.304,2.272c0.138,0.166,0.039,0.584-0.039,0.861
	c-0.536,1.932-0.32,3.807,0.386,5.646c0.314,0.818,0.798,0.971,1.449,0.362c0.545-0.511,1.025-1.122,1.413-1.761
	c0.423-0.697,1.007-0.865,1.894-0.909c-0.417,2.108-2.484,2.538-3.487,4.009c2.556-0.853,5.11-1.706,7.748-2.588
	c-0.178-0.182-0.307-0.314-0.441-0.45c0.876-0.868,1.641-0.976,2.42-0.202c-2.802,2.294-6.283,2.863-9.771,4.072
	c0.866,0.107,1.508,0.186,2.148,0.264c2.401,0.295,4.804,0.433,7.192-0.069c1.267-0.267,1.35-0.472,1.418-1.78
	c0.062-1.175,0.269-2.342,0.377-3.515c0.093-1.026,0.098-2.06,0.216-3.081c0.079-0.686,0.287-1.356,0.438-2.033
	c0.151,0.01,0.303,0.02,0.455,0.031c0.05,0.476,0.183,0.96,0.136,1.426c-0.244,2.424-0.543,4.842-0.796,7.266
	c-0.096,0.928-0.116,1.863-0.171,2.795c0.092,0.033,0.186,0.066,0.276,0.101c0.143-0.228,0.308-0.445,0.424-0.685
	c0.693-1.401,1.262-2.878,2.091-4.191c0.688-1.092,1.651-2.021,2.556-2.961c0.176-0.184,0.689-0.213,0.952-0.096
	c0.222,0.098,0.466,0.557,0.404,0.771c-0.065,0.231-0.458,0.397-0.738,0.533c-0.346,0.169-0.897,0.169-1.055,0.429
	c-1.179,1.938-2.292,3.918-3.403,5.897c-0.311,0.553-0.541,1.151-0.809,1.728c0.062,0.066,0.12,0.132,0.183,0.197
	c1.021-0.871,2.023-1.766,3.066-2.609c0.73-0.592,1.486-1.162,2.289-1.645c0.24-0.143,0.677,0.044,1.023,0.08
	c-0.141,0.285-0.211,0.655-0.435,0.841c-1.421,1.183-2.232,2.769-3.17,4.505c2.915,0.177,5.673,0.344,8.456,0.513
	c0.146,0.788-0.274,1.251-1.263,1.267c-1.695,0.028-1.696,0.027-3.036,1.104c-0.285,0.228-0.561,0.47-0.829,0.716
	c-0.061,0.057-0.08,0.157-0.111,0.222c1.356,0.442,2.703,0.87,4.041,1.325c0.352,0.121,1.071,0.066,0.763,0.693
	c-0.168,0.34-0.89,0.714-1.216,0.611c-0.824-0.26-1.586-0.75-2.34-1.203c-1.237-0.742-2.14-0.8-2.958-0.121
	c-0.7,0.578-0.657,1.025,0.132,1.453c1.525,0.826,3.158,0.775,4.819,0.644c0.417-0.034,0.854,0.149,1.281,0.231
	c-0.37,0.307-0.741,0.613-1.11,0.92c-0.044,0.037-0.093,0.068-0.231,0.17c0.309,0.029,0.54,0.016,0.749,0.078
	c0.272,0.08,0.747,0.222,0.746,0.335c-0.001,0.328-0.118,0.733-0.34,0.96c-0.171,0.175-0.614,0.244-0.86,0.154
	c-0.911-0.332-1.77-0.816-2.688-1.12c-1.465-0.482-2.725,0.316-4.02,0.808c-0.114,0.043-0.151,0.285-0.223,0.436
	c0.207,0.088,0.416,0.256,0.622,0.252c0.882-0.015,1.773-0.181,2.643-0.104c1.175,0.104,2.343,0.331,3.487,0.617
	c0.328,0.081,0.76,0.523,0.787,0.832c0.031,0.349-1.201,0.592-1.588,0.287c-1.312-1.033-2.842-0.987-4.369-0.893
	c-0.336,0.021-0.656,0.295-0.984,0.453c0.242,0.281,0.431,0.662,0.735,0.824c0.993,0.529,2.028,0.977,3.048,1.457
	c0.402,0.189,0.801,0.384,1.202,0.576c-0.604,1.09-1.397,1.15-2.155,0.398c-0.478-0.475-1.136-0.762-1.835-0.957
	c0.388,0.275,0.774,0.55,1.178,0.836c-0.678,0.61-1.212,0.558-1.941-0.088c-0.638-0.564-1.271-1.143-1.955-1.645
	c-0.225-0.165-0.606-0.116-0.915-0.165c-0.014,0.288-0.063,0.582-0.032,0.865c0.191,1.645,1.032,3.024,1.896,4.369
	c0.526,0.819,1.21,1.534,1.947,2.453c0.784-0.877,1.601-1.796,2.424-2.71c0.238-0.265,0.457-0.57,0.748-0.762
	c1.702-1.111,3.425-2.194,5.138-3.288c0.025-0.017,0.048-0.056,0.071-0.056c0.348,0.004,0.696,0.014,1.044,0.022
	c-0.086,0.303-0.072,0.734-0.273,0.888c-0.917,0.703-1.883,1.346-2.853,1.977c-2.149,1.397-4.337,2.744-5.815,4.93
	c-0.18,0.268-0.352,0.541-0.607,0.939c1.621-0.182,2.668-1.154,3.873-1.801c1.525-0.82,3.063-1.632,4.651-2.317
	c0.85-0.366,1.815-0.444,2.859,0.128c-0.815,0.709-1.384,1.436-2.566,1.262c-1.493-0.219-2.686,0.659-3.868,1.404
	c-1.288,0.811-2.503,1.721-4.072,1.992c-0.4,0.068-0.724,0.57-1.082,0.874c0.012,0.087,0.023,0.176,0.036,0.263
	c0.909,0.123,1.816,0.291,2.73,0.361c2.824,0.219,5.653,0.4,8.48,0.6c0.271,0.02,0.6-0.032,0.802,0.1
	c0.248,0.161,0.443,0.463,0.547,0.746c0.027,0.074-0.359,0.433-0.563,0.439c-0.874,0.029-1.757,0.031-2.627-0.058
	c-0.845-0.086-1.68-0.294-2.519-0.447c-1.14-0.208-2.25-0.183-3.256,0.455c-1.414-1.302-1.004-0.759-4.194-0.932
	c0.761,1.216,1.446,2.268,2.086,3.348c0.757,1.276,1.503,2.562,2.188,3.874c0.175,0.332,0.115,0.788,0.189,1.384
	c-1.23-0.571-1.664-1.55-2.209-2.386c-0.553-0.849-0.974-1.783-1.45-2.68c-0.103,0.018-0.204,0.036-0.305,0.054
	c-0.047,0.858-0.124,1.715-0.132,2.572c-0.006,0.759,0.105,1.521,0.082,2.28c-0.011,0.318-0.191,0.656-0.374,0.933
	c-0.054,0.081-0.515,0.044-0.558-0.046c-0.156-0.341-0.4-0.798-0.287-1.082c0.659-1.658-0.065-3.355,0.2-5.038
	c0.117-0.729-0.555-1.583-0.93-2.538c-0.251,0.562-0.627,1.113-0.734,1.711c-0.24,1.314-0.359,2.651-0.497,3.982
	c-0.098,0.939-0.104,1.891-0.241,2.823c-0.043,0.29-0.379,0.538-0.58,0.806c-0.273-0.352-0.728-0.676-0.781-1.058
	c-0.102-0.735-0.066-1.521,0.073-2.253c0.254-1.342,0.575-2.678,0.965-3.987c0.316-1.058,0.782-2.071,1.154-3.114
	c0.051-0.138-0.006-0.38-0.104-0.494c-0.384-0.443-2.364-0.336-2.729,0.132c-0.845,1.087-2.047,1.039-3.246,1.068
	c-0.43,0.011-0.878,0.122-1.28,0.282c-1.017,0.406-2.012,0.863-3.015,1.305c-0.32,0.142-0.633,0.299-0.949,0.448
	c0.007,0.091,0.014,0.182,0.02,0.272c0.356,0.052,0.72,0.175,1.068,0.145c1.362-0.12,2.695-0.341,4.068,0.13
	c0.706,0.241,1.542,0.138,2.315,0.115c0.398-0.011,0.858-0.23,0.845,0.42c-0.013,0.564-0.268,1.059-0.936,0.985
	c-0.569-0.062-1.139-0.219-1.685-0.405c-1.488-0.509-2.998-0.741-4.717-0.463c1.041,0.351,1.962,0.625,2.853,0.971
	c1.019,0.396,2.036,0.813,3.009,1.308c0.334,0.17,0.542,0.598,0.777,0.931c0.011,0.017-0.304,0.376-0.43,0.354
	c-0.456-0.076-1.059-0.107-1.315-0.407c-1.256-1.458-3.05-1.579-4.643-2.201c-0.082,0.073-0.166,0.146-0.252,0.22
	c0.271,0.579,0.449,1.227,0.827,1.725c1.472,1.941,2.992,3.844,4.523,5.738c0.689,0.855,0.58,1.521-0.408,1.906
	c-0.174,0.066-0.477,0.086-0.584-0.015c-0.978-0.923-2.256-0.366-3.35-0.694c-0.106-0.033-0.3,0.233-0.455,0.356
	c-0.305,0.245-0.634,0.701-0.911,0.673c-0.275-0.029-0.499-0.547-0.746-0.852c0.028-0.094,0.057-0.186,0.084-0.279
	c-1.834,0.282-3.668,0.564-5.502,0.846c-0.026,0.121-0.054,0.241-0.079,0.362c0.577,0.389,1.152,0.781,1.731,1.168
	c0.749,0.5,1.494,1.009,2.254,1.495c0.326,0.207,0.68,0.37,1.024,0.546c0.592,0.298,1.213,0.551,1.768,0.906
	c0.184,0.117,0.347,0.587,0.256,0.734c-0.121,0.197-0.526,0.367-0.759,0.316c-0.396-0.088-0.784-0.314-1.121-0.559
	c-0.823-0.602-1.574-1.314-2.435-1.856c-1.303-0.823-2.675-1.542-4.255-2.44c0.066,1.294,0.099,2.332,0.18,3.365
	c0.035,0.452,0.202,0.894,0.241,1.345c0.089,1.066,0.232,2.069,1.614,2.111c-0.01,0.971-0.256,1.522-1.297,1.139
	c-0.014,0.238-0.004,0.389-0.032,0.531c-0.089,0.447,0.022,1.117-0.727,1c-0.602-0.094-1.515,0.088-1.31-1.113
	c0.146-0.851-0.514-1.325-1.156-1.698c-0.133-0.078-0.545,0.064-0.635,0.22c-0.366,0.631-0.694,1.289-0.95,1.972
	c-0.087,0.232,0.036,0.582,0.152,0.84c0.147,0.33,0.454,0.598,0.564,0.932c0.09,0.279,0.061,0.643-0.044,0.922
	c-0.056,0.146-0.483,0.322-0.572,0.256c-0.215-0.162-0.356-0.445-0.476-0.703c-0.083-0.178-0.08-0.4-0.116-0.609
	c-1.056,0.287-1.648,1.609-1.31,2.814c0.073,0.258,0.206,0.535,0.17,0.781c-0.09,0.605-0.674,0.723-1.162,0.211
	c-0.735-0.771-1.444-1.57-2.129-2.389c-0.554-0.662-1.05-0.758-1.618-0.029c-0.15,0.191-0.404,0.301-0.688,0.504
	c-0.229-0.641-0.388-1.037-0.007-1.629c0.523-0.811-0.324-1.102-0.922-1.576c-0.914,2.354-0.339,4.486,0.36,6.381
	c0.445,0.209,0.93,0.379,0.916,0.438c-0.127,0.561-0.337,1.104-0.523,1.65c-0.317-0.164-0.825-0.26-0.918-0.51
	c-0.807-2.146-1.724-4.289-1.067-6.676c0.102-0.367,0.153-0.748,0.228-1.123c-0.099-0.061-0.198-0.121-0.298-0.18
	c-0.463,0.576-1.034,1.1-1.369,1.744c-0.716,1.371-1.422,2.771-1.919,4.232c-0.451,1.326-0.569,2.746,0.103,4.102
	c0.244,0.494,0.113,0.93-0.424,1.105c-0.534,0.176-0.783-0.186-0.894-0.652c-0.391-1.672-0.075-3.258,0.558-4.82
	c0.246-0.604,0.314-1.283,0.575-1.879c0.449-1.025,0.972-2.016,1.488-3.01c0.198-0.383,0.458-0.734,0.691-1.102
	c-0.094-0.078-0.188-0.156-0.282-0.236c-0.503,0.529-1.063,1.014-1.497,1.596c-0.87,1.168-1.676,2.387-2.5,3.592
	c-0.102,0.145-0.18,0.318-0.221,0.49c-0.29,1.184-0.637,2.361-0.821,3.561c-0.101,0.646,0.108,1.34,0.129,2.012
	c0.009,0.262-0.117,0.531-0.182,0.795c-0.19-0.168-0.487-0.301-0.552-0.508c-0.52-1.676-0.302-3.312,0.35-4.912
	c0.193-0.473,0.389-0.951,0.509-1.445c0.482-1.992,1.868-3.385,3.155-4.848c0.745-0.844,1.473-1.705,2.198-2.566
	c0.354-0.418,0.296-0.774-0.205-1.031c-0.055-0.027-0.108-0.058-0.164-0.083c-2.903-1.296-2.883-0.8-3.272,1.675
	c-0.167,1.052-0.241,2.128-0.521,3.152c-0.193,0.717-0.66,1.361-1.005,2.037c-0.102-0.031-0.2-0.062-0.3-0.094
	c-0.132-0.641-0.276-1.277-0.391-1.92c-0.114-0.65-0.201-1.305-0.327-2.141c-1.777,1.381-1.104,3.504-1.905,5.043
	c-0.109,0.004-0.221,0-0.331,0.004c0.046-0.371,0.092-0.742,0.137-1.111c-0.085-0.016-0.169-0.035-0.254-0.051
	c-0.217,0.561-0.441,1.121-0.651,1.684c-0.17,0.457-0.312,0.924-0.485,1.379c-0.295,0.77-0.683,1.373-1.502,0.793
	c-0.938,1.795-1.794,3.574-2.777,5.277c-0.805,1.396-1.809,2.676-2.632,4.062c-0.599,1.006-1.014,2.117-1.568,3.15
	c-0.562,1.041-1.146,2.078-1.808,3.059c-0.817,1.209-1.738,2.348-2.581,3.541c-0.221,0.312-0.317,0.709-0.477,1.066
	c-0.234,0.525-0.421,1.082-0.723,1.564c-1.639,2.613-3.365,5.172-4.945,7.82c-1.743,2.92-3.313,5.943-5.052,8.867
	c-0.994,1.668-2.199,3.211-3.267,4.842c-1.734,2.65-3.422,5.328-5.145,7.982c-1.957,3.014-3.92,6.02-5.906,9.014
	c-0.535,0.805-1.15,1.562-1.761,2.316c-0.419,0.52-0.875,0.529-1.405,0.07c-0.877-0.756-1.793-1.469-2.707-2.18
	c-0.437-0.34-0.569-0.703-0.216-1.162c1.35-1.76,2.717-3.504,4.044-5.275c0.503-0.672,0.891-1.432,1.384-2.113
	c0.42-0.576,0.934-1.09,1.378-1.65c0.711-0.902,1.395-1.824,2.098-2.732c0.39-0.504,0.807-0.982,1.188-1.49
	c0.415-0.551,0.811-1.113,1.198-1.682c0.291-0.426,0.536-0.883,0.838-1.303c0.836-1.162,1.697-2.305,2.529-3.467
	c0.152-0.215,0.226-0.488,0.316-0.742c0.353-0.986,0.569-2.047,1.074-2.945c1.621-2.891,3.316-5.742,5.044-8.57
	c1.331-2.182,2.8-4.277,4.119-6.463c1.335-2.211,2.555-4.49,3.839-6.729c0.514-0.898,1.134-1.74,1.581-2.662
	c0.527-1.09,0.859-2.273,1.387-3.365c0.737-1.518,1.465-3.016,2.608-4.35c1.021-1.191,1.528-2.814,2.291-4.232
	c0.234-0.434,0.565-0.816,0.841-1.205c0.087-0.461,0.082-1,0.291-1.438c0.93-1.932,1.923-3.83,2.884-5.745
	c0.081-0.159,0.16-0.354,0.141-0.522c-0.132-1.104-0.29-2.209-0.44-3.312c-1.853,0.249-5.004,3.139-5.281,4.881
	c0.329-0.098,0.645-0.188,1.026-0.301c-0.216,0.902-0.897,1.404-1.579,1.275c-0.703-0.133-0.833-0.879-0.283-1.696
	c0.457-0.682,0.881-1.393,1.403-2.021c0.513-0.618,1.131-1.147,1.796-1.81c-0.258,0.069-0.438,0.095-0.601,0.166
	c-0.303,0.135-0.604,0.436-0.896,0.422c-1.529-0.08-2.493,1.142-3.792,1.584c-0.663,0.227-0.797,0.727-0.692,1.467
	c0.144,1.009,0.045,2.05,0.028,3.082c-0.007,0.482-0.026,0.971-0.119,1.443c-0.043,0.223-0.229,0.494-0.425,0.588
	c-0.163,0.08-0.568-0.006-0.629-0.131c-0.083-0.174,0.051-0.455,0.1-0.691c0.178-0.867,0.547-1.744,0.497-2.596
	c-0.07-1.233-0.418-2.455-0.702-3.667c-0.083-0.348-0.355-0.653-0.54-0.979c-0.312,0.221-0.667,0.401-0.921,0.676
	c-0.318,0.347-0.551,0.771-0.866,1.227c-0.535-0.674-0.219-1.15,0.182-1.58c0.378-0.404,0.804-0.766,1.415-1.339
	c-0.574,0.007-0.848,0.009-1.273,0.014c0.509-1.146-0.139-1.923-1.02-2.704c-0.054,0.857-0.137,1.713-0.15,2.568
	c-0.023,1.4,0.049,2.802-0.021,4.199c-0.034,0.685-0.304,1.359-0.448,2.041c-0.137,0.639-0.165,1.316-0.394,1.918
	c-0.254,0.66-0.649,1.279-1.062,1.859c-0.103,0.146-0.509,0.078-0.776,0.107c0.032-0.326-0.059-0.822,0.118-0.951
	c0.816-0.592,1.151-1.406,1.24-2.336c0.212-2.208,0.385-4.418,0.559-6.63c0.017-0.219-0.078-0.445-0.141-0.773
	c-0.254,1.059-0.429,2.008-0.732,2.918c-0.1,0.303-0.533,0.494-0.812,0.736c-0.172-0.32-0.342-0.64-0.569-1.065
	c-0.715,0.757-1.54,1.653-2.399,2.518c-0.197,0.198-0.514,0.278-0.777,0.415c0.069-0.289,0.051-0.65,0.221-0.856
	c1.066-1.289,2.205-2.521,3.251-3.827c0.391-0.485,0.648-1.1,0.866-1.691c0.171-0.464,0.202-1.057-0.461-1.171
	c-0.566-0.101-1.185-0.048-1.407,0.684c-0.246,0.815-0.454,1.646-0.744,2.444c-0.249,0.683-0.676,1.201-1.53,1.065
	c0.574-1.167,1.111-2.264,1.727-3.52c-2.723-0.166-4.927,0.908-7.226,1.958c0.709,0.422,0.588,0.756-0.096,0.98
	c-0.731,0.241-1.461,0.363-2.443-0.219c0.727-0.555,1.27-1.15,1.945-1.441c1.449-0.627,2.956-1.127,4.462-1.61
	c0.938-0.301,1.93-0.431,2.873-0.718c0.553-0.168,0.72-0.608,0.439-1.164c-0.51-1.012-2.501-1.367-3.471-0.64
	c-0.464,0.35-0.977,0.637-1.666,1.079c0.059-1.239-0.602-1.14-1.187-1.001c-1.09,0.259-2.166,0.592-3.247,0.889
	c-0.424,0.117-0.854,0.221-1.323,0.342c0.099,0.174,0.25,0.438,0.507,0.886c-0.517-0.002-0.922,0.094-1.241-0.028
	c-0.354-0.136-0.63-0.472-0.938-0.721c0.278-0.195,0.54-0.422,0.837-0.581c1.051-0.56,2.118-1.017,3.374-0.823
	c0.319,0.05,0.684-0.219,1.032-0.32c1.009-0.299,2.025-0.578,3.031-0.889c0.23-0.072,0.599-0.223,0.61-0.36
	c0.02-0.253-0.109-0.675-0.298-0.761c-1.424-0.652-2.827-1.437-4.473-1.301c-0.471,0.039-0.928,0.226-1.298,0.1
	c-0.479-0.213-0.947-0.455-1.438-0.632c-0.469-0.167-0.621-0.413-0.257-0.788c0.206-0.213,0.484-0.373,0.759-0.496
	c1.139-0.506,2.283-1.002,3.436-1.474c0.272-0.111,0.596-0.09,0.886-0.171c0.327-0.093,0.639-0.243,0.965-0.344
	c0.397-0.123,0.799-0.28,1.207-0.308c0.48-0.031,0.968,0.06,1.452,0.097c0.011-0.168,0.02-0.338,0.028-0.508
	c-0.271-0.143-0.526-0.322-0.81-0.426c-2.633-0.957-5.334-1.23-8.091-0.699c-0.455,0.089-0.854,0.448-1.31,0.582
	c-0.256,0.075-0.573-0.053-0.861-0.091c0.129-0.26,0.191-0.641,0.401-0.759c1.356-0.768,2.852-0.794,4.356-0.678
	c1.51,0.118,3.018,0.256,4.556,0.387c0.003-0.195,0.041-0.314-0.001-0.361c-1.832-2.055-3.789-3.955-6.299-5.201
	c-0.895-0.444-1.674-0.43-2.451,0.225c-1.306,1.098-2.6,2.213-3.955,3.246c-0.867,0.66-1.818,1.219-2.77,1.758
	c-0.224,0.126-0.597-0.005-0.901-0.019c0.086-0.323,0.13-0.671,0.278-0.964c0.081-0.162,0.327-0.258,0.517-0.347
	c3.2-1.505,5.84-3.67,7.797-6.634c0.096-0.142,0.122-0.33,0.036-0.627c-0.542,0.522-1.066,1.061-1.629,1.559
	c-0.66,0.585-1.308,1.205-2.047,1.67c-0.439,0.276-1.058,0.261-1.579,0.424c-0.307,0.096-0.583,0.287-0.872,0.435
	c-0.67,0.339-1.31,0.812-2.018,0.968c-0.415,0.092-0.941-0.326-1.418-0.516c0.278-0.312,0.546-0.637,0.839-0.934
	c0.095-0.1,0.256-0.134,0.532-0.27c-0.095,0.361-0.153,0.584-0.242,0.92c0.771-0.246,1.557-0.346,2.168-0.725
	c1.733-1.074,3.406-2.251,5.08-3.42c0.228-0.16,0.32-0.51,0.477-0.771c-0.279-0.056-0.579-0.206-0.832-0.151
	c-0.892,0.197-1.766,0.472-2.647,0.705c-0.601,0.158-1.162,0.494-1.838,0.083c-0.199-0.12-0.656,0.2-1.004,0.296
	c-0.49,0.136-0.982,0.305-1.482,0.342c-0.198,0.014-0.534-0.259-0.593-0.463c-0.047-0.167,0.177-0.483,0.362-0.631
	c0.719-0.57,1.219-0.512,1.615-0.018c1.557-0.316,3.017-0.613,4.476-0.909c-1.087-0.578-2.422-0.545-3.129-1.894
	c1.917,0.483,3.713,0.938,5.737,1.449c-0.129-0.498-0.173-0.775-0.271-1.033c-0.974-2.545-2.903-4.418-4.639-6.406
	c-0.387-0.443-1.124-0.9-1.967-0.59c-0.2,0.074-0.741-0.229-0.808-0.454c-0.118-0.386,0.016-0.847,0.044-1.275
	c0.323,0.079,0.715,0.065,0.959,0.248c2.47,1.856,4.833,3.825,6.367,6.884c1.372-2.065,2.653-3.992,4.019-6.047
	c-0.471-0.088-0.975-0.182-1.669-0.312c0.485,1.04-0.153,1.004-0.71,1.113c-0.613,0.122-1.211,0.332-1.82,0.484
	c-0.196,0.049-0.465,0.129-0.602,0.042c-0.722-0.459-1.41-0.967-2.051-1.575c2.064,0.482,3.77-0.636,5.882-0.959
	c-2.033-0.979-4.224-0.676-5.848-1.946c0.002-0.093,0.001-0.186,0.003-0.278c0.352-0.06,0.725-0.228,1.052-0.162
	c1.07,0.212,2.13,0.488,3.184,0.776c0.902,0.247,1.79,0.544,2.686,0.819c0.076-0.065,0.152-0.131,0.229-0.197
	c-0.114-0.291-0.157-0.652-0.359-0.856c-0.338-0.339-0.754-0.624-1.182-0.849c-0.87-0.455-1.451-1.094-1.559-2.102L264.164,38.273z
	 M267.948,28.875c1.126-0.42,2.382-0.631,3.146-2.036c-1.415,0.38-2.229,1.288-3.146,2.038c-0.793,0.342-1.585,0.684-2.379,1.025
	c0.052,0.104,0.104,0.209,0.154,0.314C266.51,29.849,267.455,29.786,267.948,28.875z M339.623,42.748
	c0.09-0.19,0.169-0.387,0.273-0.57c0.561-1.006,0.568-1.016-0.454-1.438c-0.193-0.08-0.567-0.124-0.633-0.029
	c-0.127,0.186-0.204,0.539-0.107,0.718c0.253,0.47,0.609,0.883,0.924,1.319c0.52,1.061,1.765,1.129,3.038,0.124
	c-0.238-0.149-0.502-0.248-0.671-0.435c-0.561-0.623-0.953-0.574-1.395,0.154C340.488,42.775,339.96,42.703,339.623,42.748z
	 M321.501,48.381c-0.648,0.938-1.677,1.367-2.684,1.348c-2.074-0.041-3.922,0.77-5.863,1.23c-1.014,0.24-2.021,0.504-3.032,0.758
	c0.008,0.053,0.016,0.105,0.023,0.156c4.233,0.489,8.468,0.978,12.754,1.471c0.07-1.535-0.721-3.146,0.181-4.431
	c-0.506-0.195-0.942-0.364-1.381-0.532c0.332-0.185,0.682-0.546,0.994-0.516c0.673,0.063,0.924-0.287,1.157-0.779
	c0.183-0.385,0.38-0.764,0.585-1.139c1.089-1.984,2.227-3.944,4.192-5.207c0.629-0.404,1.373-0.628,2.174-0.981
	c-0.019,0.328,0.001,0.409-0.028,0.437c-0.223,0.205-0.451,0.406-0.687,0.596c-1.828,1.482-3.602,3.01-4.681,5.171
	c-0.445,0.89-0.248,1.214,0.759,1.196c0.242-0.005,0.493-0.014,0.728-0.072c1.592-0.402,3.18-0.832,4.776-1.221
	c0.499-0.121,1.144-0.37,1.508-0.17c0.793,0.438,1.253-0.008,1.81-0.35c0.206-0.127,0.419-0.307,0.644-0.328
	c0.645-0.063,1.226-0.219,1.418-0.91c0.157-0.574,0.332-1.182,0.299-1.762c-0.058-0.967-0.263-1.928-0.431-2.887
	c-0.238-1.359-0.501-2.715-0.77-4.17c-1.101,0.376-2.213,0.691-3.274,1.131c-3.328,1.377-6.641,2.793-9.949,4.221
	c-0.273,0.117-0.649,0.438-0.65,0.667c-0.013,1.265-0.912,1.85-1.813,2.306c-2.167,1.098-4.397,2.07-6.596,3.108
	c-1.428,0.674-2.846,1.373-4.266,2.062c0.04,0.104,0.082,0.206,0.123,0.309c0.318-0.051,0.638-0.107,0.957-0.156
	c1.505-0.229,3.003-0.508,4.516-0.652c0.476-0.045,0.989,0.267,1.481,0.429c0.354,0.116,0.734,0.415,1.05,0.353
	c1.014-0.197,1.994-0.555,3.003-0.788C320.828,48.205,321.175,48.34,321.501,48.381z M278.611,40.004
	c0.074-0.089,0.148-0.179,0.222-0.27c-0.752-0.988-1.413-2.067-2.279-2.943c-1.062-1.076-2.311-1.967-3.442-2.977
	c-0.178-0.157-0.173-0.521-0.252-0.79c0.282-0.014,0.615-0.13,0.834-0.019c0.371,0.188,0.664,0.527,1.001,0.789
	c0.622,0.48,1.298,0.902,1.864,1.439c0.569,0.537,0.966,1.266,1.56,1.768c1.259,1.069,2.054,2.328,2.196,4.008
	c0.027,0.307,0.362,0.684,0.657,0.857c1.403,0.828,2.792,1.707,4.283,2.344c0.951,0.406,2.068,0.424,3.113,0.604
	c0.068,0.013,0.161-0.069,0.233-0.121c1.222-0.855,1.582-0.858,2.799-0.064c1.096,0.713,2.178,1.449,3.314,2.091
	c0.29,0.165,0.758,0.015,1.146,0.009c-0.174-0.342-0.261-0.791-0.534-1.007c-1.574-1.247-3.306-2.321-4.765-3.686
	c-1.363-1.274-2.497-2.808-3.64-4.298c-0.27-0.353,0.004-1.148-0.278-1.459c-0.614-0.672-1.398-1.207-2.169-1.711
	c-0.526-0.346-1.182-0.493-1.723-0.821c-1.114-0.675-2.17-1.448-3.288-2.116c-1.997-1.192-4.073-2.267-6.018-3.538
	c-0.798-0.521-1.361-0.625-2.107-0.064c-1.51,1.134-3.008,2.302-4.948,2.638c-0.137,0.023-0.257,0.143-0.433,0.246
	c0.632,1.518,1.25,3.006,1.898,4.566c0.275-0.95,0.522-1.785,0.756-2.623c0.221-0.795,0.428-1.594,0.641-2.389
	c0.123,0.02,0.248,0.039,0.371,0.059c0.024,0.501,0.145,1.02,0.052,1.496c-0.249,1.264-0.59,2.512-0.9,3.764
	c-0.028,0.111-0.099,0.252-0.191,0.299c-0.564,0.293-0.44,0.778-0.434,1.271c0.008,0.574-0.136,1.149-0.13,1.724
	c0.012,1.015,0.011,2.039,0.159,3.036c0.113,0.753,0.453,1.469,0.654,2.089c0.428,0.237,0.864,0.479,1.433,0.795
	c1.188-0.419,2.511,0.078,3.842,0.36c0.65,0.139,1.167,0.084,1.655-0.431c0.625-0.659,1.323-1.251,1.81-1.706
	c-0.564,0.029-1.347,0.095-2.13,0.09c-0.221-0.002-0.439-0.211-0.66-0.325c0.145-0.216,0.247-0.556,0.442-0.622
	c0.449-0.153,0.942-0.186,1.422-0.246c0.69-0.085,1.386-0.149,2.077-0.224c0.022-0.118,0.043-0.235,0.065-0.353
	c-1.858-1.236-3.142-3.234-5.453-3.871c-0.34-0.094-0.652-0.328-0.945-0.539c-0.351-0.252-0.787-0.601-0.32-1.008
	c0.212-0.184,0.825-0.176,1.079,0c1.402,0.969,2.743,2.023,4.117,3.031C277.694,39.469,278.162,39.722,278.611,40.004z
	 M310.085,72.213c-0.107-0.027-0.213-0.057-0.321-0.084c-0.307-1.197,0.115-2.259,0.723-3.297c0.507-0.865,1.055-1.718,1.446-2.635
	c0.154-0.367,0.093-1.013-0.144-1.323c-1.034-1.356-2.154-2.645-3.274-3.931c-0.195-0.225-0.537-0.449-0.813-0.452
	c-0.916-0.012-1.385-0.54-1.708-1.282c-0.231-0.535-0.429-1.084-0.641-1.627c-0.15,0.387-0.138,0.717-0.098,1.045
	c0.378,3.084,0.768,6.166,1.138,9.252c0.126,1.043,0.466,2.148,0.253,3.125c-0.46,2.123,0.498,3.945,0.926,5.866
	c0.179,0.799,0.824,0.804,1.518,0.232c0.762-0.629,1.64-0.881,2.63-0.863c0.467,0.007,0.971-0.068,1.399-0.248
	c1.252-0.522,2.513-0.907,3.896-0.816c0.282,0.02,0.606-0.194,0.867-0.366c1.272-0.837,2.514-1.722,3.8-2.535
	c0.372-0.236,0.851-0.337,1.295-0.425c1.596-0.317,2.023-0.79,1.784-2.425c-0.26-1.794,0.259-3.447,0.775-5.088
	c0.225-0.712,0.446-1.236-0.313-1.707c-0.553-0.344-1.078-0.734-1.699-1.16c-0.278,1.207-0.875,1.391-1.931,0.989
	c-0.672-0.255-1.401-0.36-2.106-0.532c-0.034,0.104-0.071,0.209-0.106,0.312c1.097,1.174,3.058,0.742,4.202,2.033
	c-0.922,0.636-1.694,1.043-2.74,0.395c-1.344-0.833-2.844-0.797-4.336-0.406c-0.201,0.053-0.377,0.21-0.714,0.406
	c0.405,0.25,0.649,0.416,0.908,0.557c1.201,0.66,2.425,1.28,3.604,1.977c0.688,0.407,1.267,0.957,1.302,2.003
	c-2.572-1.134-4.39-3.29-7.231-4.114c0.173,0.522,0.206,0.84,0.365,1.068c0.897,1.295,1.816,2.576,2.748,3.849
	c0.626,0.86,1.315,1.677,1.905,2.562c0.113,0.168-0.104,0.559-0.168,0.848c-0.275-0.09-0.665-0.094-0.806-0.283
	c-0.875-1.166-1.682-2.383-2.542-3.559c-0.192-0.262-0.516-0.43-0.778-0.641c-0.069,0.043-0.14,0.084-0.209,0.125
	c0.11,0.611,0.294,1.221,0.3,1.832c0.002,0.342-0.25,0.721-0.479,1.008c-0.066,0.082-0.604-0.033-0.673-0.18
	c-0.146-0.303-0.246-0.727-0.148-1.029c0.342-1.049,0.425-2.057-0.186-3.304c-0.068,0.574-0.141,0.921-0.141,1.27
	c-0.002,0.39,0.234,1.008,0.067,1.135c-0.877,0.67-0.364,1.505-0.412,2.271c-0.038,0.596-0.06,1.217-0.917,1.54
	c-0.327-2.297,1.2-4.433,0.302-6.937C311.697,68.658,310.891,70.435,310.085,72.213z M291.947,52.755
	c-0.041-0.083-0.083-0.168-0.123-0.252c-0.293,0.044-0.585,0.108-0.879,0.132c-2.346,0.176-4.694,0.489-7.038,0.455
	c-1.171-0.016-2.274,0.041-3.414,0.271c-0.655,0.131-1.43,0.14-2.043-0.086c-1.07-0.393-2.122-0.435-3.23-0.543
	c-1.544-0.152-2.891,0.334-4.323,0.511c-1.626,0.2-3.253,0.415-4.877,0.644c-0.214,0.029-0.413,0.178-0.618,0.271
	c0.108,0.203,0.177,0.449,0.334,0.601c0.643,0.616,1.313,1.202,2.076,1.896c-1.011,0.52-1.398-0.153-1.818-0.592
	c-1.034-1.08-1.462-1.016-2.102,0.303c-0.287,0.59-0.126,0.811,0.462,0.953c0.559,0.135,1.182,0.24,1.627,0.564
	c1.448,1.053,2.849,2.176,4.228,3.32c0.776,0.645,1.476,1.383,2.209,2.077c0.097-0.087,0.192-0.173,0.287-0.259
	c-1.646-1.873-3.291-3.744-5.069-5.768c1.199-0.084,1.669,0.603,2.158,1.235c0.239,0.31,0.369,0.739,0.663,0.966
	c1.491,1.145,2.748,2.49,3.739,4.092c0.35,0.565,0.834,0.743,1.482,0.391c0.474-0.255,0.985-0.541,1.504-0.599
	c1.642-0.184,2.841-1.204,4.077-2.102c1.316-0.956,1.507-1.771,0.975-3.226c-0.605,0.389-1.241,0.686-1.732,1.14
	c-0.719,0.663-1.519,1.105-2.464,1.285c-0.208,0.039-0.624-0.035-0.631-0.092c-0.031-0.276-0.058-0.678,0.104-0.823
	c0.354-0.316,0.802-0.549,1.245-0.732c0.817-0.34,1.669-0.59,2.482-0.932c0.468-0.197,0.891-0.499,1.335-0.754
	c-0.039-0.086-0.078-0.172-0.116-0.258c-2.459-0.377-4.751,0.714-7.146,0.963c1.945-1.554,4.341-1.59,6.63-2.104
	c-1.423-0.313-2.835-0.556-4.251-0.576c-0.792-0.011-1.601,0.315-2.378,0.564c-0.183,0.06-0.271,0.417-0.404,0.636
	c-0.109,0.18-0.274,0.521-0.33,0.506c-0.392-0.113-0.762-0.302-1.137-0.466c0.09-0.202,0.128-0.517,0.28-0.589
	c1.064-0.498,2.133-1.271,3.236-1.332c1.698-0.096,3.435,0.246,5.139,0.513c1.7,0.269,3.369,0.527,5.038-0.141
	c1.275-0.511,2.571-0.972,3.846-1.482C291.324,53.197,291.625,52.952,291.947,52.755z M332.74,46.72
	c0.015-0.041-0.081,0.099-0.081,0.24c0.002,0.922-0.533,1.194-1.354,1.199c-0.912,0.006-1.825,0.057-2.737,0.086
	c-0.909,0.029-1.817,0.057-2.726,0.084c-0.01,0.081-0.019,0.162-0.028,0.244c0.369,0.195,0.746,0.381,1.107,0.591
	c1.025,0.594,2.077,1.148,3.051,1.815c0.57,0.391,0.392,0.995-0.27,1.217c-0.516,0.174-0.76-0.066-0.984-0.52
	c-0.416-0.846-1.271-1.281-2.049-1.137c1.182,1.545,1.671,3.035,1.119,3.764c-0.95-1.595-1.879-3.151-2.809-4.707
	c-0.132,0.023-0.263,0.049-0.396,0.074c-0.187,0.489-0.401,0.969-0.553,1.469c-0.215,0.717-0.4,1.441-0.559,2.172
	c-0.044,0.205-0.01,0.475,0.094,0.656c0.321,0.568,0.695,1.109,1.053,1.668c1.058,0.182,2.186,0.469,3.328,0.546
	c1.622,0.109,3.306,1.03,4.866-0.251c0.298-0.244,0.631-0.461,0.979-0.626c0.535-0.255,1.085-0.497,1.655-0.646
	c0.157-0.041,0.466,0.239,0.584,0.443c0.047,0.08-0.193,0.432-0.374,0.521c-0.587,0.292-1.21,0.509-1.809,0.776
	c-0.146,0.065-0.343,0.203-0.357,0.322c-0.013,0.119,0.153,0.318,0.288,0.377c0.246,0.109,0.525,0.143,0.795,0.206
	c1.508,0.354,3.053,0.604,4.514,1.104c0.833,0.286,1.338,0.017,1.851-0.452c0.637-0.58,0.815-1.636,0.402-2.094
	c-2.312-2.564-3.596-5.623-4.311-8.953c-0.233-1.092-0.335-1.147-1.469-0.85C334.698,46.287,333.823,46.469,332.74,46.72z
	 M281.102,31.478c0.007,0.012,0.072,0.142,0.145,0.27c0.431,0.777,1.253,0.883,1.959,1.244c2.08,1.064,4.14,2.196,6.076,3.496
	c1.859,1.248,3.634,2.651,5.296,4.152c1.259,1.135,2.277,2.535,3.421,3.801c0.146,0.164,0.396,0.232,0.601,0.346
	c0.108-0.23,0.257-0.453,0.314-0.695c0.039-0.164-0.015-0.371-0.087-0.533c-0.62-1.389-0.506-2.872-0.328-4.285
	c0.229-1.823-0.168-3.408-1.061-4.956c-0.378-0.655-0.812-1.026-1.608-1.111c-0.772-0.083-1.53-0.364-2.273-0.62
	c-0.683-0.234-1.332-0.561-2.002-0.83c-1.467-0.587-2.591-2.511-2.479-4.102c0.02-0.268-0.295-0.713-0.561-0.823
	c-1.043-0.434-1.902,0.114-2.672,0.73C284.263,28.828,282.718,30.138,281.102,31.478z M279.353,63.658
	c-1.13,0.402-2.279,0.773-3.393,1.229c-0.477,0.195-0.731,0.582-0.457,1.188c0.3,0.662,0.501,1.371,0.73,2.065
	c0.401,1.214,0.72,2.46,1.206,3.639c0.504,1.22,1.736,1.542,2.861,1.66c0.931,0.097,1.276-0.845,1.691-1.573
	c0.517-0.914,0.719-2.13,2.062-2.36c0.178-0.03,0.346-0.337,0.45-0.547c1.286-2.599,2.559-5.201,3.898-7.933
	c-0.228,0.131-0.336,0.177-0.423,0.25c-0.63,0.535-1.239,0.968-1.89-0.006c-0.086-0.13-0.537-0.193-0.649-0.096
	c-0.379,0.334-0.767,0.708-0.996,1.148c-0.456,0.879-0.692,1.89-1.239,2.693c-0.49,0.717-1.161,0.502-1.58-0.43
	c1.558-0.173,1.728-1.342,1.849-2.562c-1.364-0.007-1.193-0.202-1.763,0.831c-0.188,0.342-0.471,0.639-0.727,0.939
	C280.211,64.706,279.962,64.685,279.353,63.658z M332.309,35.378c-1.913-0.823-3.549-1.595-5.236-2.228
	c-0.924-0.346-1.927-0.519-2.91-0.656c-0.681-0.096-1.282,0.076-1.595,0.887c-0.135,0.347-0.645,0.607-1.039,0.781
	c-0.656,0.285-1.222,0.613-1.55,1.575c0.704-0.171,1.235-0.318,1.774-0.426c0.62-0.124,1.25-0.287,1.874-0.276
	c0.22,0.004,0.48,0.448,0.616,0.74c0.037,0.082-0.284,0.467-0.474,0.496c-1.472,0.223-2.963,0.584-4.43,0.521
	c-1.497-0.066-2.174,0.849-2.955,1.75c-0.377,0.435-0.678,0.936-1.008,1.41c-0.753,1.081-1.503,2.166-2.255,3.249
	c0.044,0.062,0.088,0.129,0.131,0.193c0.558-0.268,1.121-0.525,1.674-0.804c0.945-0.472,1.851-1.043,2.83-1.419
	c2.304-0.879,4.668-1.602,6.957-2.514C327.247,37.648,329.727,36.5,332.309,35.378z M304.601,45.15
	c2.045-2.549,3.971-4.862,5.791-7.255c0.937-1.229,1.942-2.528,2.006-4.14c0.07-1.783-0.059-3.58-0.203-5.363
	c-0.152-1.873-0.204-1.867-2.022-1.904c-0.091-0.001-0.185,0-0.272-0.02c-0.595-0.12-0.921,0.131-1.053,0.71
	c-0.285,1.247-0.697,2.477-0.854,3.738c-0.531,4.245-1.668,8.32-3.146,12.319C304.645,43.789,304.687,44.434,304.601,45.15z
	 M284.517,70.038c0.179,0.029,0.243,0.06,0.295,0.046c2.537-0.665,5.045-0.758,7.521,0.302c0.213,0.092,0.7-0.007,0.8-0.172
	c0.554-0.92,1.24-1.839,1.481-2.854c0.487-2.052,0.93-4.099,2.03-5.927c0.143-0.234,0.392-0.455,0.642-0.565
	c0.726-0.317,0.804-0.853,0.655-1.67c-0.654,0.562-1.474,0.931-1.729,1.536c-1.056,2.508-2.571,4.692-4.335,6.722
	c-0.493,0.567-1.111,1.024-1.671,1.532c-0.065-0.062-0.13-0.123-0.194-0.186c0.079-0.181,0.132-0.382,0.245-0.539
	c1.367-1.898,2.754-3.785,4.117-5.687c0.202-0.283,0.532-0.739,0.437-0.925c-0.434-0.842-0.156-1.52,0.329-2.218
	c-0.519,0.524-0.92,1.104-1.401,1.607c-1.648,1.729-3.093,3.725-5.594,4.376c-0.215,0.057-0.434,0.244-0.572,0.428
	C286.562,67.209,285.569,68.588,284.517,70.038z M290.724,70.625c-0.642-0.074-1.174-0.116-1.697-0.199
	c-2.216-0.355-4.251,0.004-5.801,1.729c-0.752,0.838-1.288,1.87-1.897,2.828c-0.057,0.088,0.022,0.301,0.094,0.426
	c0.494,0.868,1.003,1.728,1.576,2.711c1.165-1.145,2.571-1.396,4.012-1.405c1.962-0.014,3.363-0.896,4.379-2.513
	c0.389-0.619,0.85-1.195,1.193-1.836c0.153-0.285,0.103-0.68,0.156-1.135c-1.402,0.344-2.572,0.682-3.765,0.908
	c-1.945,0.369-3.55,1.205-4.612,2.951c-0.299,0.489-0.714,0.912-1.096,1.346c-0.139,0.155-0.338,0.256-0.722,0.538
	c0.397-1.82,1.525-2.901,2.33-4.16c0.065-0.102,0.268-0.118,0.41-0.165c1.717-0.577,3.436-1.15,5.151-1.733
	C290.507,70.891,290.553,70.8,290.724,70.625z M317.301,33.931c0.043,0.094,0.085,0.187,0.127,0.279
	c1.595-0.541,3.268-0.93,4.506-2.212c1.015-1.052,1.006-1.321,0.064-2.042c-0.441-0.34-0.727-0.895-1.05-1.373
	c-0.529-0.783-0.963-1.643-1.572-2.355c-0.379-0.443-1.036-0.984-1.516-0.938c-1.409,0.14-2.796,0.526-4.177,0.878
	c-0.253,0.065-0.627,0.427-0.619,0.642c0.064,1.924,0.2,3.846,0.316,5.768c0.159,0.021,0.317,0.041,0.476,0.061
	c0.217-0.693,0.522-1.372,0.635-2.082c0.174-1.111,0.225-2.243,0.316-3.367c0.043-0.543,0.294-0.914,0.85-0.789
	c0.122,0.027,0.217,0.637,0.155,0.947c-0.223,1.143-0.516,2.27-0.783,3.403c0.083,0.021,0.166,0.042,0.248,0.063
	c0.403-1.141,0.772-2.293,1.232-3.408c0.095-0.234,0.516-0.334,0.789-0.495c0.037,0.274,0.181,0.588,0.096,0.817
	c-0.764,2.084-1.569,4.152-2.362,6.228c0.041,0.062,0.082,0.124,0.123,0.187c0.532-0.304,1.081-0.584,1.594-0.916
	c0.738-0.479,1.436-1.023,2.188-1.48c0.154-0.094,0.601-0.005,0.672,0.129c0.098,0.183,0.055,0.564-0.084,0.725
	c-0.231,0.264-0.578,0.437-0.893,0.619C318.196,33.469,317.745,33.695,317.301,33.931z M273.212,51.904
	c0.932,0.074,1.651,0.139,2.372,0.177c0.165,0.009,0.395-0.024,0.494-0.132c0.421-0.455,0.869-0.379,1.413-0.253
	c0.419,0.097,0.928,0.048,1.334-0.104c0.908-0.338,1.759-0.836,2.67-1.166c0.599-0.214,1.258-0.293,1.898-0.349
	c0.845-0.073,1.699-0.042,2.545-0.101c0.437-0.031,0.863-0.235,1.294-0.236c1.959-0.007,3.917,0.032,5.876,0.055
	c0.013-0.076,0.025-0.152,0.037-0.229c-0.482-0.116-0.961-0.259-1.45-0.343c-0.989-0.17-1.989-0.273-2.971-0.479
	c-0.321-0.066-0.768-0.304-0.858-0.566c-0.284-0.816-0.91-1.064-1.621-1.097c-2.244-0.101-4.49-0.169-6.736-0.169
	c-0.332,0-0.688,0.418-0.99,0.688c-1.169,1.05-2.298,2.148-3.491,3.17C274.533,51.195,273.913,51.474,273.212,51.904z
	 M330.082,57.865c-0.493-0.158-0.687-0.248-0.89-0.281c-2.131-0.347-4.266-0.685-6.397-1.021c-0.119-0.018-0.247-0.022-0.364,0
	c-2.297,0.466-4.525,0.034-6.76-0.464c-0.864-0.194-1.762-0.241-2.645-0.354c0.148,0.291,0.334,0.378,0.525,0.443
	c4.338,1.457,8.512,3.279,12.461,5.607c0.232,0.137,0.814,0.06,0.984-0.137C328.026,60.478,328.983,59.234,330.082,57.865z
	 M312.596,58.838c2.791,2.27,5.981,2.432,9.516,2.06c-3.428-1.479-6.328-3.72-10.057-3.888c0.02,0.59,0.309,1.475-0.569,1.225
	c-1.289-0.367-2.479-1.08-3.708-1.652c-0.17-0.08-0.325-0.196-0.628-0.382c0.021,0.362-0.026,0.586,0.053,0.745
	c0.583,1.166,1.184,2.324,1.801,3.471c0.128,0.234,0.32,0.469,0.541,0.608c1.061,0.673,1.779,1.622,2.35,2.717
	c0.155,0.298,0.406,0.543,0.639,0.847c0.69-1.02,0.647-1.83-0.034-2.553c-0.646-0.686-1.299-1.369-1.919-2.08
	c-0.258-0.297-0.439-0.663-0.653-0.997c0.065-0.072,0.13-0.145,0.194-0.217c0.325,0.169,0.717,0.274,0.964,0.521
	c0.728,0.729,1.397,1.519,2.094,2.281c0.922,1.011,2.089,1.033,2.847,0.028C314.838,60.734,312.967,60.784,312.596,58.838z
	 M266.266,53.136c1.915-0.381,3.978-0.793,6.046-1.205c0.023-0.551,0.261-1.281,0.027-1.797c-0.435-0.968,0.094-1.371,0.665-1.91
	c0.61-0.578,1.142-1.237,1.708-1.861c-0.064-0.084-0.128-0.17-0.193-0.254c-1.977-0.195-3.953-0.392-5.923-0.586
	c-0.299,1.4-0.485,2.73-0.879,3.999C267.318,50.81,266.717,52.034,266.266,53.136z M317.827,76.171
	c-0.07-0.122-0.14-0.246-0.21-0.369c-0.669,0.018-1.361-0.072-2.001,0.072c-1.476,0.334-2.929,0.771-4.383,1.194
	c-0.271,0.077-0.506,0.286-0.844,0.485c0.887,0.455,2.154,0.114,2.512,1.598c-1.759-0.389-3.324-1.275-5.044-0.316
	c0.772,0.621,2.002-0.029,2.7,1.17c-0.605-0.044-0.987-0.111-1.363-0.088c-0.367,0.022-0.91,0.023-1.05,0.242
	c-0.195,0.308-0.092,0.807-0.116,1.258c0.282-0.019,0.41,0.011,0.454-0.038c1.07-1.187,2.524-1.315,3.981-1.526
	c1.014-0.146,2.186-0.231,2.951-0.797C316.395,78.333,317.038,77.155,317.827,76.171z M300.394,79.714
	c0.085,0.045,0.171,0.088,0.255,0.133c0.383-0.175,0.749-0.415,1.15-0.514c0.985-0.242,1.367-0.863,1.393-1.837
	c0.057-2.304,0.184-4.605,0.218-6.908c0.012-0.823-0.16-1.648-0.249-2.472c-0.108-0.005-0.217-0.01-0.324-0.015
	C302.023,71.972,301.209,75.843,300.394,79.714z M316.026,37.261c-0.859-0.373-1.628-0.762-2.436-1.029
	c-0.281-0.092-0.806-0.008-0.976,0.197c-0.749,0.914-1.492,1.855-2.089,2.873c-1.162,1.984-2.226,4.025-3.329,6.043
	c1.911-1.877,3.688-3.821,5.414-5.812c0.534-0.617,1.069-0.975,1.804-0.656C315.021,38.269,315.57,37.719,316.026,37.261z
	 M336.391,31.962c-1.532,0.097-3.008,0.282-4.479,0.259c-1.396-0.024-2.786-0.29-4.183-0.396c-0.392-0.031-0.799,0.12-1.198,0.188
	c1.239,0.615,2.425,1.017,3.597,1.456c1.625,0.608,3.266,0.949,5.012,0.606c1.252-0.245,1.256-0.208,1.226-1.51
	C336.359,32.324,336.385,32.082,336.391,31.962z M266.031,68.598c0.021,0.071,0.042,0.143,0.064,0.212
	c1.315,0.302,2.634,0.584,3.942,0.912c0.703,0.177,1.386,0.434,2.077,0.653c0.216-0.721,0.468-1.434,0.642-2.165
	c0.248-1.051-0.141-1.548-1.213-1.371c-1.25,0.207-2.482,0.558-3.697,0.925C267.214,67.955,266.635,68.316,266.031,68.598z
	 M328.734,61.605c2.629-0.852,5.113-1.655,7.597-2.459c0.013-0.08,0.025-0.16,0.039-0.24c-0.489-0.241-0.959-0.609-1.475-0.691
	c-0.74-0.117-1.515-0.029-2.275-0.022c-1.106,0.011-2.157,0.261-2.882,1.138C329.191,59.991,328.523,60.68,328.734,61.605z
	 M279.7,45.784c3.194,0.212,6.283,0.417,9.373,0.624c0.032-0.102,0.065-0.203,0.099-0.304c-0.313-0.167-0.637-0.497-0.936-0.478
	c-2.121,0.145-3.908-0.736-5.671-1.725c-0.671-0.375-1.337-0.764-2.012-1.15C280.246,43.842,279.979,44.793,279.7,45.784z
	 M291.277,54.613c0.003-0.062,0.004-0.125,0.008-0.188c-0.86,0.197-1.772,0.275-2.568,0.62c-1.024,0.442-1.96,1.091-2.929,1.659
	c-0.229,0.135-0.586,0.27-0.631,0.465c-0.229,0.957-0.373,1.935-0.568,3.031c0.298-0.103,0.463-0.113,0.562-0.198
	C287.198,58.211,289.238,56.411,291.277,54.613z M304.489,69.287c-0.059,0.002-0.116,0.004-0.175,0.007
	c-0.021,0.095-0.062,0.188-0.062,0.284c0.004,2.553,0.021,5.104,0.016,7.657c-0.002,1.208,0.205,1.354,1.328,0.855
	c0.195-0.085,0.388-0.186,0.56-0.309c0.647-0.459,0.698-1.056,0.229-1.701c-0.15-0.206-0.153-0.527-0.205-0.799
	c-0.049-0.263-0.04-0.538-0.116-0.79c-0.315-1.043-0.661-2.074-0.979-3.115C304.872,70.683,304.687,69.984,304.489,69.287z
	 M299.529,61.414c-1.781,3.535-3.419,8.871-2.57,11.077C298.472,68.898,299.393,65.252,299.529,61.414z M292.713,77.032
	c-0.552-0.066-1.11-0.316-1.424-0.137c-0.973,0.556-1.831,0.604-2.976,0.42c-1.174-0.189-2.501,0.324-3.716,0.687
	c-1.347,0.397-1.449,0.843-0.758,2.097C286.758,79.091,289.67,78.086,292.713,77.032z M266.689,46.289
	c-0.716,0.892-1.373,1.705-2.021,2.527c-0.069,0.086-0.118,0.233-0.1,0.338c0.157,0.826,0.312,1.656,0.519,2.471
	c0.049,0.193,0.272,0.403,0.465,0.473c0.102,0.035,0.378-0.182,0.452-0.342c0.454-0.954,0.968-1.896,1.273-2.9
	C267.53,48.029,267.489,47.133,266.689,46.289z M295.277,71.221c0.305-0.501,0.712-0.95,0.866-1.476
	c0.331-1.123,0.552-2.279,0.777-3.43c0.22-1.117,0.388-2.242,0.579-3.363c-0.078-0.021-0.158-0.041-0.236-0.062
	c-0.078,0.12-0.181,0.231-0.229,0.361c-0.764,2.049-1.503,4.105-2.292,6.146C294.462,70.125,294.571,70.679,295.277,71.221z
	 M327.831,65.236c-0.079,0.037-0.158,0.072-0.238,0.108c0.084,0.402,0.157,0.806,0.254,1.204c0.223,0.914,0.628,1.822,0.64,2.736
	c0.011,0.941,0.357,1.373,1.168,1.66c0.704,0.248,1.378,0.568,2.071,0.233c-0.603-0.817-1.21-1.563-1.728-2.366
	C329.244,67.642,328.551,66.43,327.831,65.236z M315.107,84.541c-0.069-0.055-0.179-0.158-0.304-0.24
	c-1.53-1.004-1.663-0.928-2.677,0.564c-0.484,0.717-0.307,1.164,0.229,1.643c0.203,0.182,0.423,0.352,0.656,0.49
	c0.874,0.527,1.02,0.473,1.368-0.473C314.61,85.905,314.837,85.281,315.107,84.541z M311.514,25.592
	c1.62-0.227,2.983-0.438,4.352-0.604c1.94-0.234,1.983-0.305,0.925-1.929c-0.033-0.051-0.054-0.144-0.093-0.151
	c-0.279-0.055-0.63-0.223-0.832-0.116c-1.042,0.55-2.055,1.152-3.055,1.774C312.399,24.822,312.043,25.168,311.514,25.592z
	 M345.087,36.285c-0.92-0.086-1.796-0.196-2.676-0.234c-0.534-0.023-1.095-0.012-1.604,0.127c-0.704,0.19-0.79,0.619-0.178,0.988
	c0.801,0.482,1.677,0.852,2.551,1.193c0.19,0.074,0.603-0.104,0.75-0.292C344.335,37.552,344.653,36.969,345.087,36.285z
	 M291.406,76.135c0.843-0.03,1.679-0.052,2.513-0.106c0.108-0.006,0.264-0.178,0.295-0.3c0.221-0.82,0.444-1.643,0.584-2.479
	c0.021-0.129-0.408-0.5-0.578-0.471C293.116,72.967,291.521,74.879,291.406,76.135z M323.277,23.244
	c-0.282,0.133-0.721,0.273-1.078,0.528c-0.222,0.159-0.483,0.519-0.444,0.741c0.204,1.227,0.438,2.455,0.782,3.648
	c0.168,0.584,0.595,1.094,0.902,1.638c0.136-0.044,0.27-0.087,0.403-0.13c-0.013-0.389,0.125-0.887-0.066-1.149
	c-0.562-0.779-0.443-1.604-0.404-2.452c0.016-0.354-0.089-0.711-0.099-1.067C323.257,24.453,323.274,23.904,323.277,23.244z
	 M273.478,50.342c1.543-0.602,2.827-1.355,3.728-2.636c0.185-0.261,0.223-0.626,0.329-0.94c-0.347-0.045-0.707-0.177-1.033-0.115
	C275.069,46.917,273.737,48.511,273.478,50.342z M313.948,82.081c0.014,0.116-0.064,0.578,0.115,0.729
	c1.284,1.079,2.078,1.055,2.969,0.016c0.378-0.439,0.219-1.469-0.285-1.859C316.123,80.484,314.923,80.892,313.948,82.081z
	 M319.08,20.551c-0.4,0.308-0.727,0.564-1.058,0.813c-0.984,0.737-1.023,0.928-0.323,1.942c0.169,0.246,0.357,0.545,0.608,0.654
	c0.31,0.137,0.882,0.257,1.011,0.105c0.375-0.443,0.854-1.061,0.794-1.545C320.029,21.864,319.481,21.265,319.08,20.551z
	 M327.612,70.795c-0.326-1.705-0.653-3.404-0.979-5.104c-0.106,0.011-0.212,0.022-0.318,0.031c-0.196,1.252-0.487,2.496-0.564,3.756
	C325.661,70.906,325.938,71.066,327.612,70.795z M310.573,24.582c1.853-0.519,3.509-1.378,4.942-2.634
	c0.579-0.507,0.418-0.966-0.019-1.45C313.824,21.886,312.198,23.234,310.573,24.582z M339.25,39.4
	c0.531,0.262,0.946,0.438,1.335,0.664c0.445,0.259,1.628-0.1,1.746-0.6c0.041-0.168-0.098-0.506-0.24-0.566
	c-0.715-0.305-1.458-0.544-2.33-0.855C339.601,38.469,339.42,38.95,339.25,39.4z M309.707,82.739
	c-0.354,0.605,0.354,1.978,0.847,1.908c0.487-0.07,0.971-0.562,1.337-0.977c0.393-0.441,0.113-0.835-0.397-0.909
	C310.879,82.673,309.855,82.482,309.707,82.739z M320.703,80.605c-0.197-1.476-0.362-2.702-0.528-3.932
	c-0.082-0.001-0.165-0.002-0.249-0.003c-0.275,1.123-0.553,2.248-0.846,3.444C319.542,80.254,319.964,80.383,320.703,80.605z
	 M319.073,76.507c-0.104-0.041-0.208-0.08-0.312-0.121c-0.578,0.721-1.191,1.418-1.707,2.18c-0.117,0.176,0.003,0.707,0.188,0.852
	c0.365,0.283,0.84,0.258,1.025-0.281C318.564,78.27,318.808,77.384,319.073,76.507z M321.395,27.781
	c0.077-0.027,0.156-0.054,0.234-0.081c-0.214-0.802-0.416-1.608-0.651-2.403c-0.097-0.326-0.274-0.898-0.398-0.895
	c-0.403,0.014-0.797,0.244-1.202,0.393C320.117,25.89,320.756,26.836,321.395,27.781z M295.342,77.145
	c0.302-0.375,0.559-0.582,0.661-0.848c0.198-0.511,0.298-1.057,0.456-1.583c0.168-0.566,0.109-1.004-0.705-1.195
	C295.634,74.681,294.733,75.663,295.342,77.145z M302.442,80.548c-0.104-0.021-0.209-0.042-0.313-0.062
	c-1.124,1.38-1.317,3.033-0.311,3.687C302.033,82.927,302.238,81.738,302.442,80.548z M276.939,45.574
	c1.752,0.309,2.37-0.266,2.17-1.92C278.079,43.92,277.512,44.646,276.939,45.574z M273.078,71.143
	c0.675,0.091,1.161,0.154,1.907,0.255c-0.435-0.928-0.771-1.638-1.104-2.348c-0.109,0.023-0.219,0.047-0.327,0.07
	C273.406,69.747,273.259,70.374,273.078,71.143z M276.171,72.013c0.099-0.059,0.197-0.116,0.297-0.175
	c-0.745-1.354-0.616-3.125-2.123-4.121C274.954,69.15,275.562,70.582,276.171,72.013z M329.368,72.367
	c0.995,0.905,2.24,0.559,3.386,0.721C331.689,72.552,330.639,71.97,329.368,72.367z M322.018,73.4
	c0.042,0.148,0.083,0.295,0.127,0.442c0.876-0.205,1.758-0.392,2.622-0.644c0.079-0.023,0.045-0.449,0.076-0.855
	C323.781,72.741,322.898,73.071,322.018,73.4z M319.004,63.231c-1.356-1.06-1.93-1.066-3.303-0.095
	C316.834,63.17,317.806,63.196,319.004,63.231z M313.492,80.967c-1.087,0.234-1.983,0.431-3.094,0.675
	C312.429,82.262,312.751,82.2,313.492,80.967z M283.678,58.529c-0.306,0.803-0.613,1.605-0.929,2.433
	C283.736,61.072,284.12,60.135,283.678,58.529z M297.775,85.592c-0.708,1.414-1.344,2.684-1.946,3.891
	C296.336,89.551,297.814,87.071,297.775,85.592z M339.115,37.711c-0.814-0.254-1.278-0.396-1.809-0.562
	c-0.077,0.839,0.287,1.288,0.862,1.425C338.36,38.619,338.68,38.123,339.115,37.711z M276.379,75.341
	c0.501-0.452,0.821-0.737,1.139-1.024c-0.38-0.279-0.761-0.559-1.142-0.838c-0.096,0.08-0.191,0.161-0.288,0.242
	C276.169,74.164,276.248,74.607,276.379,75.341z M318.526,34.935c-1.056,0.214-2.121,0.43-3.125,0.632
	C316.465,36.154,317.946,35.875,318.526,34.935z M326.156,72.918c0.811-0.048,1.359-0.082,2.03-0.123
	c-0.468-0.833-1.1-0.705-1.668-0.633C326.398,72.177,326.324,72.551,326.156,72.918z M339.212,36.878
	c0.49-0.617,0.486-0.974-0.067-1.138c-0.244-0.072-0.542,0.031-0.815,0.055C338.606,36.135,338.884,36.475,339.212,36.878z
	 M264.085,52.34c0.111-0.021,0.223-0.044,0.334-0.064c-0.041-0.414-0.039-0.84-0.161-1.227c-0.026-0.083-0.517-0.016-1.012-0.02
	C263.624,51.62,263.854,51.979,264.085,52.34z M274.761,72.482c0.018-0.057,0.032-0.113,0.049-0.17c-0.502-0.15-1-0.332-1.512-0.434
	c-0.156-0.032-0.355,0.158-0.534,0.248c0.157,0.135,0.309,0.374,0.475,0.387C273.743,72.55,274.253,72.498,274.761,72.482z
	 M340.729,33.44c-0.088-0.065-0.179-0.132-0.267-0.198c-0.32,0.4-0.642,0.799-0.962,1.197c0.088,0.068,0.176,0.137,0.265,0.205
	C340.086,34.244,340.408,33.843,340.729,33.44z M294.238,80.56c0.229-0.593,0.453-1.177,0.672-1.743
	C294.187,78.79,293.918,79.465,294.238,80.56z M298.561,84.039c0.097,0.045,0.191,0.092,0.286,0.137
	c0.265-0.543,0.529-1.084,0.795-1.629c-0.1-0.044-0.198-0.091-0.296-0.136C299.083,82.953,298.822,83.496,298.561,84.039z
	 M295.132,58.355c0.735-0.805,1.452-1.587,2.171-2.369c-0.055-0.045-0.108-0.09-0.161-0.137
	C296.476,56.679,295.81,57.51,295.132,58.355z M320.669,82.43c-0.142-1.042-0.863-0.936-1.628-1.113
	c0.469,0.376,0.788,0.644,1.12,0.892C320.273,82.292,320.423,82.326,320.669,82.43z"/>
</svg>
